<svg width="129" height="60" viewBox="0 0 129 60" fill="none" xmlns="http://www.w3.org/2000/svg">
<path fill-rule="evenodd" clip-rule="evenodd" d="M128.333 19.3939H115.506V14.4242H126.636V9.81818H115.506V5.0303H126.172L128.152 0.404037H110.355V24H126.333L128.333 19.3939Z" fill="#662D91"/>
<path fill-rule="evenodd" clip-rule="evenodd" d="M103.891 19.2929H92.1543V0.404037H86.9628V24H101.851L103.891 19.2929Z" fill="#662D91"/>
<path fill-rule="evenodd" clip-rule="evenodd" d="M80.5189 19.2929H68.742V0.404037H63.5505V24H78.4787L80.5189 19.2929Z" fill="#662D91"/>
<path fill-rule="evenodd" clip-rule="evenodd" d="M22.4831 20.6667V10.4242H14.1605L12.2415 14.9091H17.4734V18.2828C16.1603 19.2323 14.4635 19.697 12.5849 19.697C8.40338 19.697 5.43392 16.5253 5.43392 12.202V12.1414C5.43392 8.12121 8.44378 4.78788 12.2011 4.78788C14.9281 4.78788 16.5442 5.65657 18.3622 7.17172L20.4428 2.30303C18.3218 0.808081 15.9381 0 12.3829 0C5.23191 0 0 5.49495 0 12.202V12.2626C0 19.2323 5.05011 24.404 12.4031 24.404C16.726 24.404 20.059 22.7273 22.4831 20.6667Z" fill="#662D91"/>
<path fill-rule="evenodd" clip-rule="evenodd" d="M55.4098 21.8182C56.036 21.5151 56.3794 21.1919 56.3794 20.8485C56.3794 20.3434 55.6522 19.899 54.3998 19.4949L52.7231 15.5353C56.844 16.4444 59.5307 17.9192 59.5307 19.5555C59.5307 20.7475 58.1167 21.8586 55.7936 22.7071L55.4098 21.8182Z" fill="#00AEEF"/>
<path fill-rule="evenodd" clip-rule="evenodd" d="M42.8047 5.31313C41.0473 9.59596 40.0979 11.9596 39.1485 14.2828C37.189 14.4242 35.3508 14.6465 33.7145 14.9697L39.9161 0.404037H45.8348L54.8644 21.6364L55.4098 22.9697H55.43L55.8744 24H50.4809C47.9356 17.7778 45.3702 11.5556 42.8047 5.31313Z" fill="#662D91"/>
<path fill-rule="evenodd" clip-rule="evenodd" d="M30.8461 21.7172L31.6541 19.8182C32.1591 19.6768 32.7449 19.5354 33.4115 19.4141C34.5226 19.1919 35.8356 19.0303 37.2698 18.8889L36.6436 20.4444L35.5932 23.0303L35.2094 23.9798C33.3711 23.697 31.7551 23.3131 30.4017 22.8485L30.8461 21.7172Z" fill="#662D91"/>
<path fill-rule="evenodd" clip-rule="evenodd" d="M42.8855 14.5657C44.0167 14.5657 45.1277 14.6061 46.1984 14.6667L47.7336 18.4242C46.2388 18.3232 44.6025 18.2424 42.9057 18.2424C35.4517 18.2424 29.4118 19.4141 29.4118 20.8485C29.4118 21.1919 29.7552 21.5152 30.3814 21.8182L30.0178 22.7273C27.6746 21.8586 26.2807 20.7677 26.2807 19.5758C26.2403 16.8081 33.6741 14.5657 42.8855 14.5657Z" fill="#00AEEF"/>
<path fill-rule="evenodd" clip-rule="evenodd" d="M100.396 59.798V54.6061H97.8509V53.7576H103.891V54.6061H101.346V59.798H100.396Z" fill="#662D91"/>
<path fill-rule="evenodd" clip-rule="evenodd" d="M84.3772 56.9899V59.798H83.4278V53.7576H84.3772V56.101H88.6193V53.7576H89.5485V59.798H88.6193V56.9899H84.3772Z" fill="#662D91"/>
<path fill-rule="evenodd" clip-rule="evenodd" d="M74.7012 59.798V52H75.2264L80.2765 57.8182V52H81.2461V59.798H80.7613L75.6708 53.9596V59.798H74.7012Z" fill="#662D91"/>
<path fill-rule="evenodd" clip-rule="evenodd" d="M68.1764 57.2727C68.0754 57.4141 67.9542 57.5758 67.8128 57.7172C67.6916 57.8586 67.5502 58 67.3886 58.1212L68.7824 59.7374H67.53L66.6614 58.7475C66.1362 59.1919 65.6312 59.4949 65.1464 59.697C64.6616 59.899 64.1565 60 63.6313 60C62.7425 60 62.0557 59.7778 61.5103 59.3131C60.9851 58.8485 60.7225 58.2424 60.7225 57.4747C60.7225 56.8687 60.9043 56.3232 61.2881 55.8384C61.6719 55.3535 62.2577 54.9293 63.0657 54.5253L60.9245 52H66.0352L66.5806 52.8485H62.9243L66.7422 57.3535C66.9442 57.1515 67.1058 56.9899 67.2068 56.8687C67.328 56.7475 67.429 56.6263 67.5098 56.4849L68.1764 57.2727ZM66.0958 58.0404L63.6919 55.2121C63.0455 55.4949 62.5607 55.8182 62.2577 56.1818C61.9345 56.5455 61.7729 56.9697 61.7729 57.4343C61.7729 57.9192 61.9345 58.3232 62.2981 58.6465C62.6415 58.9495 63.0859 59.1111 63.6515 59.1111C64.0757 59.1111 64.4797 59.0303 64.904 58.8485C65.2878 58.6667 65.6918 58.3838 66.0958 58.0404Z" fill="#662D91"/>
<path fill-rule="evenodd" clip-rule="evenodd" d="M52.4201 59.798V54.6061H49.8547V53.7576H55.8946V54.6061H53.3493V59.798H52.4201Z" fill="#662D91"/>
<path fill-rule="evenodd" clip-rule="evenodd" d="M44.1985 53.7576L45.3096 51.8182H46.4004L47.4912 53.7576H46.7842L45.855 52.4242L44.9258 53.7576H44.1985Z" fill="#662D91"/>
<path fill-rule="evenodd" clip-rule="evenodd" d="M42.4613 59.798L45.5318 53.7576H46.1176L49.2082 59.798H48.1982C46.7438 56.9495 47.2892 58.0606 45.8348 55.1515C44.5823 57.596 44.6632 57.4343 43.4511 59.798H42.4613Z" fill="#662D91"/>
<path fill-rule="evenodd" clip-rule="evenodd" d="M36.381 56.9899V59.798H35.4518V53.7576H36.381V56.101H40.6231V53.7576H41.5725V59.798H40.6231V56.9899H36.381Z" fill="#662D91"/>
<path fill-rule="evenodd" clip-rule="evenodd" d="M33.0681 57.3131L33.8559 57.899C33.4923 58.5859 33.0075 59.0909 32.3813 59.4545C31.7551 59.8182 31.0481 60 30.2602 60C29.0886 60 28.119 59.6162 27.3716 58.8485C26.604 58.0808 26.2404 57.1111 26.2404 55.9192C26.2404 54.7273 26.6242 53.7576 27.3918 52.9899C28.1594 52.2222 29.1088 51.8384 30.2804 51.8384C31.0077 51.8384 31.6541 52 32.2601 52.303C32.8459 52.6263 33.3307 53.0707 33.7145 53.6566L32.9065 54.2424C32.6641 53.7778 32.3005 53.4141 31.8561 53.1515C31.3915 52.8889 30.8865 52.7475 30.3006 52.7475C29.432 52.7475 28.7048 53.0505 28.119 53.6566C27.5534 54.2626 27.2504 55.0101 27.2504 55.9394C27.2504 56.8485 27.5332 57.6162 28.119 58.2222C28.6846 58.8283 29.4118 59.1111 30.3006 59.1111C30.9067 59.1111 31.4521 58.9495 31.9369 58.6667C32.3611 58.3232 32.7651 57.8788 33.0681 57.3131Z" fill="#662D91"/>
<path fill-rule="evenodd" clip-rule="evenodd" d="M48.8648 51.8182H49.794L48.4406 53.7576H47.7538L48.8648 51.8182Z" fill="#662D91"/>
<path fill-rule="evenodd" clip-rule="evenodd" d="M92.1948 53.7576L93.3058 51.8182H94.3764L95.4874 53.7576H94.7602L93.831 52.4242L92.9018 53.7576H92.1948ZM96.8611 51.8182H97.7903L96.4368 53.7576H95.75L96.8611 51.8182ZM90.4575 59.798H91.4473C92.6392 57.4343 92.5584 57.6162 93.831 55.1515C95.3056 58.0606 94.7602 56.9495 96.1944 59.798H97.2045L94.1138 53.7576H93.528L90.4575 59.798Z" fill="#662D91"/>
<path fill-rule="evenodd" clip-rule="evenodd" d="M31.9167 42.6465L27.9372 31.0303H26.2202L31.1895 45.0707H32.5025L36.3406 33.7576L40.1585 45.0707H41.4917L46.461 31.0303H44.845L40.8655 42.6465L37.0476 30.9899H35.7548L31.9167 42.6465ZM55.9754 30.9293H54.5008L48.1376 44.9697H49.7537L51.4101 41.2929H59.0055L60.6417 44.9697H62.3385L55.9754 30.9293ZM58.3994 39.8788H52.0363L55.228 32.7677L58.3994 39.8788ZM70.3581 32.4848H75.0446V31.0303H64.096V32.4848H68.7825V44.9697H70.3783V32.4848H70.3581ZM89.9525 42.7677L88.9223 41.7576C87.5891 43.0303 86.3366 43.7778 84.4176 43.7778C81.3471 43.7778 79.0241 41.2525 79.0241 38C79.0241 34.7475 81.3269 32.2626 84.4176 32.2626C86.3164 32.2626 87.6295 33.0505 88.8011 34.1818L89.8717 33.0303C88.4779 31.7172 86.9629 30.8283 84.4378 30.8283C80.3371 30.8283 77.3879 34.0808 77.3879 38.0606C77.3879 42.0808 80.3573 45.2525 84.3772 45.2525C86.9023 45.2121 88.4981 44.2424 89.9525 42.7677ZM102.315 38.7071V44.9899H103.891V31.0505H102.315V37.2525H94.2754V31.0505H92.6998V44.9899H94.2754V38.7071H102.315Z" fill="#662D91"/>
</svg>
