<svg width="30" height="25" viewBox="0 0 30 25" fill="none" xmlns="http://www.w3.org/2000/svg">
<path d="M15.9124 24.1762L27.0757 13.0141C29.8175 10.2712 30.2219 5.75962 27.6267 2.87678C26.9765 2.15288 26.1856 1.56902 25.3023 1.16083C24.419 0.752635 23.4618 0.528664 22.489 0.502576C21.5163 0.476487 20.5485 0.648827 19.6446 1.00908C18.7407 1.36934 17.9196 1.90997 17.2315 2.59798L15.1333 4.69619L13.3216 2.8845C10.5787 0.141618 6.06715 -0.262816 3.18432 2.3335C2.46044 2.98363 1.87661 3.77443 1.46843 4.65764C1.06025 5.54085 0.836282 6.49797 0.810193 7.47059C0.784104 8.44321 0.956438 9.41095 1.31668 10.3148C1.67693 11.2186 2.21753 12.0396 2.90551 12.7276L14.3542 24.1774C14.5609 24.3839 14.8411 24.5 15.1333 24.5C15.4255 24.5 15.7058 24.3839 15.9124 24.1774V24.1762Z" stroke="#662D91" stroke-linecap="round" stroke-linejoin="round"/>
</svg>
